<svg width="19" height="19" viewBox="0 0 19 19" fill="none" xmlns="http://www.w3.org/2000/svg">
<path d="M8.91992 0C8.2192 0.65291 7.65716 1.44026 7.26735 2.31509C6.87753 3.18991 6.66793 4.13429 6.65103 5.09187C6.63414 6.04946 6.8103 7.00064 7.169 7.88867C7.52771 8.7767 8.06162 9.58339 8.73887 10.2606C9.41613 10.9378 10.2229 11.4717 11.1109 11.8304C11.999 12.1891 12.9502 12.3652 13.9079 12.3484C14.8655 12.3315 15.8099 12.1219 16.6848 11.7321C17.5597 11.3423 18.3471 10.7803 19 10.0796C18.6976 15.0576 14.5648 19 9.51046 19C4.25741 19 0 14.7428 0 9.49097C0 4.43692 3.94264 0.304289 8.91992 0Z" fill="#181818"/>
</svg>
